<svg width="16" height="16" viewBox="0 0 16 16" fill="none" xmlns="http://www.w3.org/2000/svg">
<path fill-rule="evenodd" clip-rule="evenodd" d="M10 4.5C10.1326 4.5 10.2598 4.44732 10.3536 4.35355C10.4473 4.25979 10.5 4.13261 10.5 4C10.5 3.86739 10.4473 3.74021 10.3536 3.64645C10.2598 3.55268 10.1326 3.5 10 3.5H4.00002C3.86741 3.5 3.74024 3.55268 3.64647 3.64645C3.5527 3.74021 3.50002 3.86739 3.50002 4V10C3.50002 10.1326 3.5527 10.2598 3.64647 10.3536C3.74024 10.4473 3.86741 10.5 4.00002 10.5C4.13263 10.5 4.25981 10.4473 4.35357 10.3536C4.44734 10.2598 4.50002 10.1326 4.50002 10V5.20667L11.6467 12.3533C11.7415 12.4417 11.8668 12.4897 11.9964 12.4874C12.1259 12.4852 12.2495 12.4327 12.3411 12.3411C12.4327 12.2495 12.4852 12.1259 12.4875 11.9963C12.4898 11.8668 12.4417 11.7414 12.3534 11.6467L5.20669 4.5H10Z" fill="#999999"/>
</svg>
