<svg width="20" height="20" viewBox="0 0 20 20" fill="none" xmlns="http://www.w3.org/2000/svg">
<path fill-rule="evenodd" clip-rule="evenodd" d="M9.16667 2.29169C7.34331 2.29169 5.59462 3.01602 4.30531 4.30533C3.016 5.59464 2.29167 7.34332 2.29167 9.16669C2.29167 10.9901 3.016 12.7387 4.30531 14.028C5.59462 15.3174 7.34331 16.0417 9.16667 16.0417C10.99 16.0417 12.7387 15.3174 14.028 14.028C15.3173 12.7387 16.0417 10.9901 16.0417 9.16669C16.0417 7.34332 15.3173 5.59464 14.028 4.30533C12.7387 3.01602 10.99 2.29169 9.16667 2.29169ZM1.04167 9.16669C1.04167 4.67919 4.67917 1.04169 9.16667 1.04169C13.6542 1.04169 17.2917 4.67919 17.2917 9.16669C17.2917 13.6542 13.6542 17.2917 9.16667 17.2917C4.67917 17.2917 1.04167 13.6542 1.04167 9.16669ZM16.7983 16.4592C16.7529 16.4558 16.7073 16.4623 16.6647 16.4782C16.622 16.494 16.5832 16.5189 16.5511 16.5511C16.5189 16.5833 16.494 16.622 16.4781 16.6647C16.4623 16.7074 16.4558 16.753 16.4592 16.7984C16.4592 16.7992 16.4625 16.8209 16.4792 16.8817C16.4975 16.9517 16.5258 17.0459 16.5692 17.19C16.6083 17.3217 16.6342 17.4067 16.655 17.47C16.6767 17.535 16.6842 17.5475 16.6808 17.5417C16.7017 17.5804 16.7304 17.6144 16.7651 17.6414C16.7998 17.6684 16.8397 17.6879 16.8823 17.6987C16.925 17.7094 16.9694 17.7112 17.0128 17.7038C17.0561 17.6964 17.0975 17.6801 17.1342 17.6559C17.1283 17.6592 17.1408 17.6517 17.19 17.6059C17.2392 17.5592 17.3017 17.4967 17.3992 17.3992C17.4967 17.3017 17.5592 17.2392 17.605 17.1909C17.6442 17.1492 17.655 17.1334 17.6567 17.1325C17.6805 17.0959 17.6965 17.0548 17.7036 17.0117C17.7108 16.9686 17.7089 16.9245 17.6982 16.8821C17.6875 16.8398 17.6681 16.8001 17.6413 16.7656C17.6145 16.7311 17.5809 16.7026 17.5425 16.6817C17.5417 16.6817 17.5242 16.6734 17.47 16.655C17.3771 16.6251 17.2837 16.5965 17.19 16.5692C17.0876 16.5379 16.9848 16.5079 16.8817 16.4792C16.8543 16.4711 16.8264 16.4644 16.7983 16.4592ZM15.2133 16.9025C15.1948 16.676 15.2258 16.4482 15.3041 16.2348C15.3825 16.0215 15.5063 15.8277 15.667 15.667C15.8277 15.5063 16.0214 15.3825 16.2348 15.3041C16.4481 15.2258 16.676 15.1948 16.9025 15.2134C17.0692 15.2275 17.2708 15.2884 17.4883 15.3534L17.5483 15.3717L17.6025 15.3884C17.8025 15.4467 17.99 15.5034 18.1317 15.5792C18.3237 15.6821 18.4922 15.824 18.6263 15.9957C18.7604 16.1675 18.8573 16.3653 18.9106 16.5766C18.9639 16.7879 18.9726 17.008 18.936 17.2228C18.8995 17.4376 18.8185 17.6424 18.6983 17.8242C18.6092 17.9575 18.4708 18.0959 18.3233 18.2434L18.2833 18.2834L18.2433 18.3234C18.0958 18.4709 17.9575 18.6092 17.8242 18.6984C17.6424 18.8186 17.4376 18.8995 17.2228 18.9361C17.0079 18.9726 16.7879 18.9639 16.5766 18.9106C16.3653 18.8573 16.1675 18.7605 15.9957 18.6263C15.824 18.4922 15.6821 18.3237 15.5792 18.1317C15.5033 17.99 15.4475 17.8025 15.3875 17.6025L15.3708 17.5484L15.3542 17.4884C15.2875 17.2717 15.2275 17.0692 15.2133 16.9025Z" fill="#606060"/>
</svg>
